<svg xmlns="http://www.w3.org/2000/svg" xmlns:xlink="http://www.w3.org/1999/xlink" version="1.1" width="1000" height="1000" viewBox="0 0 1000 1000" xml:space="preserve">
<desc>Created with Fabric.js 3.5.0</desc>
<defs>
</defs>
<rect x="0" y="0" width="100%" height="100%" fill="rgba(255,255,255,0)"/>
<g transform="matrix(13.7319 0 0 13.7319 499.9986 499.9987)" id="9">
<path style="stroke: none; stroke-width: 1; stroke-dasharray: none; stroke-linecap: butt; stroke-dashoffset: 0; stroke-linejoin: miter; stroke-miterlimit: 4; is-custom-font: none; font-file-url: none; fill: rgb(72,142,255); fill-rule: nonzero; opacity: 1;" transform=" translate(-33.9995, -34.0008)" d="M 25 23 h 18 a 2 2 0 0 1 2 2 v 18 a 2 2 0 0 1 -2 2 H 25 a 2 2 0 0 1 -2 -2 V 25 a 2 2 0 0 1 2 -2 z m 7 -16.172 l -1.586 1.586 a 2 2 0 0 1 -2.828 -2.828 l 5 -5 a 2 2 0 0 1 2.828 0 l 5 5 a 2 2 0 0 1 -2.828 2.828 L 36 6.828 V 17 a 2 2 0 0 1 -4 0 V 6.828 z m 4 54.344 l 1.586 -1.586 a 2 2 0 0 1 2.828 2.828 L 35.68 67.15 c -0.75 1.135 -2.609 1.135 -3.358 0 l -4.735 -4.735 a 2 2 0 0 1 2.828 -2.828 L 32 61.172 V 51 c 0 -2.667 4 -2.667 4 0 v 10.172 z M 61.172 32 l -1.586 -1.586 a 2 2 0 0 1 2.828 -2.828 l 4.735 4.735 c 1.135 0.75 1.135 2.609 0 3.358 l -4.735 4.735 a 2 2 0 0 1 -2.828 -2.828 L 61.172 36 H 51 c -2.667 0 -2.667 -4 0 -4 h 10.172 z M 6.828 36 l 1.586 1.586 a 2 2 0 0 1 -2.828 2.828 L 0.85 35.68 c -1.135 -0.75 -1.135 -2.609 0 -3.358 l 4.735 -4.735 a 2 2 0 0 1 2.828 2.828 L 6.828 32 H 17 c 2.667 0 2.667 4 0 4 H 6.828 z" stroke-linecap="round"/>
</g>
</svg>